<?xml version="1.0" standalone="no"?>
<!DOCTYPE svg PUBLIC "-//W3C//DTD SVG 20010904//EN"
 "http://www.w3.org/TR/2001/REC-SVG-20010904/DTD/svg10.dtd">
<svg version="1.0" xmlns="http://www.w3.org/2000/svg"
 width="156.000000pt" height="156.000000pt" viewBox="0 0 156.000000 156.000000"
 preserveAspectRatio="xMidYMid meet">
<metadata>
Created by potrace 1.14, written by Peter Selinger 2001-2017
</metadata>
<g transform="translate(0.000000,156.000000) scale(0.100000,-0.100000)"
fill="#000000" stroke="none">
<path d="M687 1493 l-98 -57 7 -41 c4 -28 0 -54 -10 -79 l-16 -37 106 -185
c58 -101 109 -184 112 -184 4 0 55 84 113 186 106 184 106 186 92 216 -11 20
-14 45 -10 77 l5 46 -95 55 c-52 30 -98 56 -101 57 -4 2 -51 -23 -105 -54z"/>
<path d="M217 1222 l-97 -57 2 -119 3 -120 32 -8 c17 -5 45 -24 61 -43 l29
-35 216 2 216 3 -107 187 c-89 157 -111 188 -130 188 -31 0 -84 23 -101 43 -7
10 -16 17 -20 16 -3 0 -50 -26 -104 -57z"/>
<path d="M1223 1253 c-18 -13 -50 -27 -72 -30 l-39 -5 -104 -181 c-56 -99
-104 -184 -106 -188 -2 -5 94 -9 212 -9 l217 0 30 34 c16 19 46 40 64 46 l35
12 0 114 0 114 -37 23 c-21 13 -67 40 -103 59 l-65 36 -32 -25z"/>
<path d="M227 691 c-15 -26 -70 -61 -96 -61 -8 0 -11 -36 -9 -121 l3 -121 100
-58 100 -58 26 24 c14 14 45 28 69 32 l44 7 108 185 c59 102 107 188 108 193
0 4 -98 7 -218 7 l-218 0 -17 -29z"/>
<path d="M902 708 c2 -7 50 -95 108 -195 97 -170 106 -183 133 -183 31 0 62
-13 92 -40 19 -18 23 -17 123 42 l102 60 0 113 0 114 -43 19 c-24 11 -54 34
-66 51 l-22 31 -215 0 c-168 0 -215 -3 -212 -12z"/>
<path d="M677 463 l-107 -186 15 -41 c8 -23 14 -59 13 -80 l-3 -40 90 -53 c50
-29 97 -53 105 -52 8 0 56 24 105 53 l90 52 -3 46 c-2 25 3 61 11 80 l15 35
-107 186 c-58 103 -108 187 -111 187 -3 0 -54 -84 -113 -187z"/>
</g>
</svg>
